<svg xmlns="http://www.w3.org/2000/svg" height="40" viewBox="0 -960 960 960" width="40"><path d="M480.198-56.754q-88.263 0-165.502-33t-134.844-90.685Q122.247-238.123 89.5-315.661 56.754-393.2 56.754-481.646q0-87.912 32.746-165.151 32.747-77.239 90.352-134.098 57.605-56.858 134.809-89.684 77.205-32.826 165.652-32.826 87.912 0 165.071 32.826 77.159 32.826 134.764 89.684 57.605 56.859 90.431 134.19 32.826 77.331 32.826 165.372 0 88.334-32.826 165.772-32.826 77.438-90.431 135.122-57.605 57.685-134.915 90.685-77.309 33-165.035 33Zm-.517-89.115q30.776-34.681 51.816-78.649 21.04-43.967 35.199-99.953H393.891q13.174 53.319 34.49 98.392 21.316 45.072 51.3 80.21Zm-95.688-14.428q-21.985-34-37.576-74.384-15.591-40.384-26.757-89.79H183.63q32.92 61.458 80.355 100.309t120.008 63.865Zm192.122-.666q63.907-20.189 116.088-63.055t84.595-100.453H641.689q-11.762 48.507-27.675 89.007-15.913 40.501-37.899 74.501ZM157.038-395.652h149.1q-2.906-23.573-3.739-44.247-.834-20.674-.834-41.434 0-23.667 1.167-42.888 1.167-19.221 4.073-40.794H157.038q-6.118 21.493-8.571 40.421-2.453 18.927-2.453 43.261 0 24.094 2.453 44.141 2.453 20.047 8.571 41.54Zm222.446 0h201.639q3.508-26.239 4.515-45.58 1.007-19.341 1.007-40.101 0-20.334-1.007-38.888t-4.535-44.794H379.464q-3.667 26.24-4.834 44.794-1.166 18.554-1.166 38.888 0 20.76 1.166 40.101 1.167 19.341 4.854 45.58Zm274.298 0h149.552q5.268-21.493 7.8-41.54 2.533-20.047 2.533-44.141 0-24.334-2.533-43.261-2.532-18.928-7.8-40.421H654.449q1.841 29.733 2.967 47.99 1.127 18.258 1.127 35.692 0 21.427-1.46 40.768-1.46 19.34-3.301 44.913Zm-12.76-240.782h135.776q-31.08-60.095-83.262-102.921-52.181-42.827-118.087-61.015 21.985 34.159 37.899 73.873 15.913 39.714 27.674 90.063Zm-247.131 0h173.472q-10.855-47.242-33.642-93.709-22.786-46.466-54.04-85.604-28.109 31.964-48.362 74.178-20.254 42.214-37.428 105.135Zm-210.261 0h136.574q10.456-48.349 25.463-87.729 15.007-39.381 37.66-75.54-66.066 18.188-117.421 59.935-51.356 41.746-82.276 103.334Z"/></svg>